<svg width="313" height="92" viewBox="0 0 313 92" fill="none" xmlns="http://www.w3.org/2000/svg">
<mask id="mask0_2057_2005" style="mask-type:luminance" maskUnits="userSpaceOnUse" x="9" y="6" width="70" height="74">
<path d="M9.28491 6.0127H78.7151V79.3878H9.28491V6.0127Z" fill="white"/>
</mask>
<g mask="url(#mask0_2057_2005)">
<mask id="mask1_2057_2005" style="mask-type:luminance" maskUnits="userSpaceOnUse" x="9" y="6" width="70" height="74">
<path d="M56.1385 6.0127H31.8615C31.3757 6.0127 30.9815 6.42926 30.9815 6.9427V28.012C30.9815 28.5255 30.5873 28.942 30.1015 28.942H10.1649C9.67908 28.942 9.28491 29.3586 9.28491 29.872V55.5284C9.28491 56.0419 9.67908 56.4584 10.1649 56.4584H30.1015C30.5873 56.4584 30.9815 56.875 30.9815 57.3884V78.4578C30.9815 78.9712 31.3757 79.3878 31.8615 79.3878H56.1385C56.6243 79.3878 57.0185 78.9712 57.0185 78.4578V57.3884C57.0185 56.875 57.4127 56.4584 57.8985 56.4584H77.8351C78.3209 56.4584 78.7151 56.0419 78.7151 55.5284V29.872C78.7151 29.3586 78.3209 28.942 77.8351 28.942H57.8985C57.4127 28.942 57.0185 28.5255 57.0185 28.012V6.9427C57.0185 6.42926 56.6243 6.0127 56.1385 6.0127Z" fill="white"/>
</mask>
<g mask="url(#mask1_2057_2005)">
<path d="M9.28491 6.0127H78.7151V79.3878H9.28491V6.0127Z" fill="#0B4C4D"/>
</g>
</g>
<mask id="mask2_2057_2005" style="mask-type:luminance" maskUnits="userSpaceOnUse" x="61" y="10" width="13" height="14">
<path d="M61.5459 10.313H73.8393V23.3049H61.5459V10.313Z" fill="white"/>
</mask>
<g mask="url(#mask2_2057_2005)">
<mask id="mask3_2057_2005" style="mask-type:luminance" maskUnits="userSpaceOnUse" x="61" y="10" width="13" height="14">
<path d="M69.6456 10.313H65.7396C65.5453 10.313 65.3876 10.4796 65.3876 10.685V14.001C65.3876 14.2064 65.23 14.373 65.0356 14.373H61.8979C61.7036 14.373 61.5459 14.5396 61.5459 14.745V18.8729C61.5459 19.0782 61.7036 19.2449 61.8979 19.2449H65.0356C65.23 19.2449 65.3876 19.4115 65.3876 19.6169V22.9329C65.3876 23.1383 65.5453 23.3049 65.7396 23.3049H69.6456C69.8399 23.3049 69.9976 23.1383 69.9976 22.9329V19.6169C69.9976 19.4115 70.1552 19.2449 70.3496 19.2449H73.4873C73.6816 19.2449 73.8393 19.0782 73.8393 18.8729V14.745C73.8393 14.5396 73.6816 14.373 73.4873 14.373H70.3496C70.1552 14.373 69.9976 14.2064 69.9976 14.001V10.685C69.9976 10.4796 69.8399 10.313 69.6456 10.313Z" fill="white"/>
</mask>
<g mask="url(#mask3_2057_2005)">
<path d="M61.5459 10.313H73.8393V23.3049H61.5459V10.313Z" fill="#058789"/>
</g>
</g>
<mask id="mask4_2057_2005" style="mask-type:luminance" maskUnits="userSpaceOnUse" x="18" y="27" width="29" height="42">
<path d="M18.7734 27.272H46.2294V68.688H18.7734V27.272Z" fill="white"/>
</mask>
<g mask="url(#mask4_2057_2005)">
<mask id="mask5_2057_2005" style="mask-type:luminance" maskUnits="userSpaceOnUse" x="17" y="23" width="33" height="49">
<path d="M31.2025 23.3052L49.3818 30.3422L35.2184 71.2108L17.0391 64.1748L31.2025 23.3052Z" fill="white"/>
</mask>
<g mask="url(#mask5_2057_2005)">
<mask id="mask6_2057_2005" style="mask-type:luminance" maskUnits="userSpaceOnUse" x="17" y="23" width="33" height="49">
<path d="M31.2025 23.3052L49.3818 30.3422L35.2184 71.2108L17.0391 64.1748L31.2025 23.3052Z" fill="white"/>
</mask>
<g mask="url(#mask6_2057_2005)">
<path d="M18.8367 64.6631C20.7653 61.9971 22.078 58.9184 23.8435 56.1391C25.3578 53.4246 26.9565 50.7005 27.8888 47.6935C28.4516 45.0382 27.8805 42.2385 28.7477 39.6364C28.9457 38.1174 29.6029 36.5471 29.2225 35.0213C28.3077 34.1484 28.1491 32.1896 29.8339 32.7999C31.3363 32.9433 31.5215 35.8254 32.0953 35.928C33.0248 33.8278 33.9122 31.6326 35.5576 30.0274C36.51 29.1129 37.2653 27.1454 38.776 27.4195C40.3893 28.3466 38.5459 30.1659 37.9703 31.2267C37.434 32.3001 35.7162 33.8433 36.1232 34.7636C37.7273 32.6992 39.6973 30.937 41.7158 29.3173C43.2182 27.961 44.5638 30.5214 42.9065 31.4253C41.3023 33.17 39.4983 34.7404 38.2673 36.8203C37.5073 37.573 38.0124 38.0951 38.6321 37.1303C40.0309 35.4698 41.6892 34.0932 43.1604 32.5093C44.2091 30.7152 46.1634 33.0567 44.5785 34.1601C43.3621 35.65 41.9623 36.9569 40.7432 38.4361C40.3307 39.0552 38.545 41.4799 40.3114 40.4899C41.9715 39.4989 43.4134 38.1804 44.8361 36.8551C46.619 35.742 46.5713 38.5107 45.2853 39.1704C43.8635 40.8696 42.2593 42.3857 40.6533 43.8795C38.9456 46.3741 37.7924 49.3462 35.5035 51.3593C34.1652 52.1943 33.6463 53.7288 33.1651 55.2081C31.6242 59.6498 30.1667 64.1235 28.6725 68.5817C25.3963 67.2739 22.0533 66.122 18.8367 64.6621V64.6631Z" fill="white"/>
</g>
</g>
</g>
<mask id="mask7_2057_2005" style="mask-type:luminance" maskUnits="userSpaceOnUse" x="41" y="43" width="29" height="40">
<path d="M41.7708 43.3921H69.2268V82.3281H41.7708V43.3921Z" fill="white"/>
</mask>
<g mask="url(#mask7_2057_2005)">
<mask id="mask8_2057_2005" style="mask-type:luminance" maskUnits="userSpaceOnUse" x="38" y="39" width="33" height="46">
<path d="M38.5442 46.7383L55.5823 39.1753L70.7797 77.4177L53.7416 84.9797L38.5442 46.7383Z" fill="white"/>
</mask>
<g mask="url(#mask8_2057_2005)">
<mask id="mask9_2057_2005" style="mask-type:luminance" maskUnits="userSpaceOnUse" x="38" y="39" width="33" height="46">
<path d="M55.5869 39.1733L38.5488 46.7354L53.7472 84.9778L70.7852 77.4147L55.5869 39.1733Z" fill="white"/>
</mask>
<g mask="url(#mask9_2057_2005)">
<path d="M69.0967 77.9727C67.1487 75.5237 65.7692 72.6543 63.9725 70.091C62.416 67.578 60.7788 65.0583 59.7659 62.2392C59.1187 59.737 59.545 57.0448 58.61 54.6074C58.3579 53.1708 57.6658 51.706 57.9637 50.2355C58.7979 49.3616 58.8676 47.489 57.2891 48.1488C55.8646 48.3561 55.8087 51.1083 55.2669 51.2333C54.2934 49.2774 53.3566 47.2285 51.7231 45.7773C50.7771 44.9509 49.9759 43.1132 48.5486 43.4455C47.0508 44.4036 48.8832 46.0495 49.4754 47.0318C50.0309 48.0296 51.7313 49.4178 51.383 50.3139C49.7687 48.4229 47.819 46.8371 45.8289 45.3898C44.3421 44.1691 43.1678 46.6695 44.7839 47.4532C46.3844 49.039 48.1673 50.4495 49.4277 52.3725C50.1831 53.0535 49.7238 53.5738 49.0931 52.6845C47.6916 51.1693 46.0544 49.9361 44.5868 48.4975C43.5134 46.838 41.7516 49.1592 43.3071 50.1357C44.5272 51.4968 45.9151 52.6757 47.1379 54.0271C47.5568 54.5968 49.359 56.822 47.6347 55.9617C46.0122 55.0966 44.5841 53.909 43.1742 52.7135C41.4298 51.737 41.5911 54.371 42.8442 54.9387C44.2687 56.4897 45.8601 57.8585 47.4523 59.2051C49.1821 61.5001 50.4049 64.2765 52.6691 66.0861C53.9781 66.8185 54.5372 68.2552 55.057 69.6415C56.7116 73.7984 58.2864 77.9892 59.8961 82.1645C62.9605 80.7656 66.0955 79.513 69.0967 77.9717V77.9727Z" fill="white"/>
</g>
</g>
</g>
<path d="M104.384 56.34C102.457 56.34 100.803 56.0113 99.42 55.354C98.06 54.6967 96.8247 53.7107 95.714 52.396L98.774 49.336C99.4767 50.2653 100.293 50.9907 101.222 51.512C102.151 52.0107 103.285 52.26 104.622 52.26C105.823 52.26 106.775 52.022 107.478 51.546C108.203 51.07 108.566 50.4127 108.566 49.574C108.566 48.8487 108.362 48.2593 107.954 47.806C107.546 47.3527 107.002 46.9673 106.322 46.65C105.665 46.3327 104.928 46.0493 104.112 45.8C103.319 45.528 102.514 45.222 101.698 44.882C100.905 44.542 100.168 44.1227 99.488 43.624C98.8307 43.1027 98.298 42.4453 97.89 41.652C97.482 40.836 97.278 39.816 97.278 38.592C97.278 37.1413 97.6293 35.906 98.332 34.886C99.0347 33.866 99.998 33.084 101.222 32.54C102.446 31.996 103.829 31.724 105.37 31.724C107.002 31.724 108.475 32.03 109.79 32.642C111.105 33.254 112.181 34.0473 113.02 35.022L109.96 38.082C109.257 37.3113 108.532 36.7447 107.784 36.382C107.059 36.0193 106.231 35.838 105.302 35.838C104.237 35.838 103.398 36.042 102.786 36.45C102.174 36.858 101.868 37.4473 101.868 38.218C101.868 38.8753 102.072 39.408 102.48 39.816C102.888 40.224 103.421 40.5753 104.078 40.87C104.758 41.1647 105.495 41.448 106.288 41.72C107.104 41.992 107.909 42.298 108.702 42.638C109.518 42.978 110.255 43.42 110.912 43.964C111.592 44.508 112.136 45.2107 112.544 46.072C112.952 46.9107 113.156 47.9533 113.156 49.2C113.156 51.4213 112.374 53.1667 110.81 54.436C109.246 55.7053 107.104 56.34 104.384 56.34ZM123.333 56.34C121.883 56.34 120.591 56.034 119.457 55.422C118.347 54.81 117.474 53.96 116.839 52.872C116.205 51.784 115.887 50.526 115.887 49.098V39.578H120.375V48.996C120.375 49.676 120.489 50.2653 120.715 50.764C120.942 51.24 121.282 51.6027 121.735 51.852C122.189 52.1013 122.721 52.226 123.333 52.226C124.263 52.226 124.988 51.9427 125.509 51.376C126.031 50.8093 126.291 50.016 126.291 48.996V39.578H130.745V49.098C130.745 50.5487 130.428 51.818 129.793 52.906C129.181 53.994 128.309 54.844 127.175 55.456C126.065 56.0453 124.784 56.34 123.333 56.34ZM145.342 56V46.582C145.342 45.6073 145.036 44.814 144.424 44.202C143.812 43.59 143.019 43.284 142.044 43.284C141.41 43.284 140.843 43.42 140.344 43.692C139.846 43.964 139.449 44.3493 139.154 44.848C138.882 45.3467 138.746 45.9247 138.746 46.582L137.012 45.698C137.012 44.406 137.284 43.284 137.828 42.332C138.395 41.3573 139.166 40.598 140.14 40.054C141.138 39.51 142.26 39.238 143.506 39.238C144.708 39.238 145.784 39.544 146.736 40.156C147.688 40.7453 148.436 41.5273 148.98 42.502C149.524 43.454 149.796 44.4853 149.796 45.596V56H145.342ZM134.292 56V39.578H138.746V56H134.292ZM152.058 63.276C150.879 63.276 149.905 63.0833 149.134 62.698C148.341 62.3127 147.627 61.7687 146.992 61.066L149.814 58.244C150.086 58.584 150.381 58.822 150.698 58.958C150.993 59.1167 151.344 59.196 151.752 59.196C152.319 59.196 152.795 59.026 153.18 58.686C153.565 58.346 153.758 57.8473 153.758 57.19V39.578H158.212V57.122C158.212 58.414 157.929 59.5133 157.362 60.42C156.818 61.3493 156.081 62.052 155.152 62.528C154.245 63.0267 153.214 63.276 152.058 63.276ZM156.036 36.926C155.311 36.926 154.71 36.688 154.234 36.212C153.758 35.7133 153.52 35.1013 153.52 34.376C153.52 33.6733 153.758 33.0727 154.234 32.574C154.71 32.0753 155.311 31.826 156.036 31.826C156.784 31.826 157.385 32.0753 157.838 32.574C158.314 33.0727 158.552 33.6733 158.552 34.376C158.552 35.1013 158.314 35.7133 157.838 36.212C157.385 36.688 156.784 36.926 156.036 36.926ZM169.121 56.34C167.67 56.34 166.378 56.034 165.245 55.422C164.134 54.81 163.261 53.96 162.627 52.872C161.992 51.784 161.675 50.526 161.675 49.098V39.578H166.163V48.996C166.163 49.676 166.276 50.2653 166.503 50.764C166.729 51.24 167.069 51.6027 167.523 51.852C167.976 52.1013 168.509 52.226 169.121 52.226C170.05 52.226 170.775 51.9427 171.297 51.376C171.818 50.8093 172.079 50.016 172.079 48.996V39.578H176.533V49.098C176.533 50.5487 176.215 51.818 175.581 52.906C174.969 53.994 174.096 54.844 172.963 55.456C171.852 56.0453 170.571 56.34 169.121 56.34ZM187.196 56V32.098H190.46L200.15 47.602H198.28L207.936 32.098H211.2V56H206.61V40.02L207.494 40.292L200.762 51.104H197.634L190.902 40.292L191.82 40.02V56H187.196ZM223.461 56.34C221.738 56.34 220.208 55.9773 218.871 55.252C217.533 54.504 216.468 53.484 215.675 52.192C214.904 50.9 214.519 49.4267 214.519 47.772C214.519 46.14 214.893 44.6893 215.641 43.42C216.411 42.128 217.454 41.108 218.769 40.36C220.083 39.5893 221.545 39.204 223.155 39.204C224.741 39.204 226.135 39.5667 227.337 40.292C228.561 40.9947 229.513 41.9693 230.193 43.216C230.895 44.44 231.247 45.834 231.247 47.398C231.247 47.6927 231.224 47.9987 231.179 48.316C231.156 48.6107 231.099 48.9507 231.009 49.336L217.205 49.37V46.038L228.935 46.004L227.133 47.398C227.087 46.4233 226.906 45.6073 226.589 44.95C226.294 44.2927 225.852 43.794 225.263 43.454C224.696 43.0913 223.993 42.91 223.155 42.91C222.271 42.91 221.5 43.114 220.843 43.522C220.185 43.9073 219.675 44.4627 219.313 45.188C218.973 45.8907 218.803 46.7293 218.803 47.704C218.803 48.7013 218.984 49.574 219.347 50.322C219.732 51.0473 220.276 51.614 220.979 52.022C221.681 52.4073 222.497 52.6 223.427 52.6C224.265 52.6 225.025 52.464 225.705 52.192C226.385 51.8973 226.974 51.4667 227.473 50.9L230.091 53.518C229.297 54.4473 228.323 55.15 227.167 55.626C226.033 56.102 224.798 56.34 223.461 56.34ZM240.937 56.34C239.419 56.34 238.059 55.966 236.857 55.218C235.656 54.47 234.704 53.45 234.001 52.158C233.321 50.866 232.981 49.4153 232.981 47.806C232.981 46.174 233.321 44.712 234.001 43.42C234.704 42.128 235.645 41.108 236.823 40.36C238.025 39.612 239.396 39.238 240.937 39.238C242.116 39.238 243.17 39.476 244.099 39.952C245.051 40.428 245.811 41.0967 246.377 41.958C246.967 42.7967 247.284 43.7487 247.329 44.814V50.662C247.284 51.7273 246.978 52.6907 246.411 53.552C245.845 54.4133 245.085 55.0933 244.133 55.592C243.181 56.0907 242.116 56.34 240.937 56.34ZM241.685 52.226C242.524 52.226 243.249 52.0447 243.861 51.682C244.496 51.2967 244.983 50.7753 245.323 50.118C245.686 49.438 245.867 48.656 245.867 47.772C245.867 46.9107 245.686 46.1513 245.323 45.494C244.983 44.814 244.496 44.2927 243.861 43.93C243.249 43.5447 242.535 43.352 241.719 43.352C240.881 43.352 240.144 43.5447 239.509 43.93C238.897 44.3153 238.41 44.8367 238.047 45.494C237.707 46.1513 237.537 46.9107 237.537 47.772C237.537 48.656 237.707 49.438 238.047 50.118C238.41 50.7753 238.909 51.2967 239.543 51.682C240.178 52.0447 240.892 52.226 241.685 52.226ZM250.049 56H245.629V51.58L246.343 47.568L245.595 43.624V31.418H250.049V56ZM253.99 56V39.578H258.478V56H253.99ZM256.234 36.926C255.508 36.926 254.908 36.688 254.432 36.212C253.956 35.7133 253.718 35.1013 253.718 34.376C253.718 33.6733 253.956 33.0727 254.432 32.574C254.908 32.0753 255.508 31.826 256.234 31.826C256.982 31.826 257.582 32.0753 258.036 32.574C258.512 33.0727 258.75 33.6733 258.75 34.376C258.75 35.1013 258.512 35.7133 258.036 36.212C257.582 36.688 256.982 36.926 256.234 36.926ZM270.175 56.34C268.498 56.34 266.991 55.966 265.653 55.218C264.316 54.47 263.262 53.45 262.491 52.158C261.721 50.866 261.335 49.4153 261.335 47.806C261.335 46.174 261.721 44.712 262.491 43.42C263.262 42.128 264.316 41.108 265.653 40.36C267.013 39.5893 268.521 39.204 270.175 39.204C271.467 39.204 272.657 39.442 273.745 39.918C274.833 40.394 275.774 41.074 276.567 41.958L273.711 44.848C273.281 44.372 272.759 44.0093 272.147 43.76C271.558 43.5107 270.901 43.386 270.175 43.386C269.359 43.386 268.623 43.5787 267.965 43.964C267.331 44.3267 266.821 44.8367 266.435 45.494C266.073 46.1287 265.891 46.888 265.891 47.772C265.891 48.6333 266.073 49.404 266.435 50.084C266.821 50.7413 267.331 51.2627 267.965 51.648C268.623 52.0107 269.359 52.192 270.175 52.192C270.923 52.192 271.592 52.0673 272.181 51.818C272.793 51.546 273.315 51.1607 273.745 50.662L276.635 53.552C275.797 54.4587 274.833 55.15 273.745 55.626C272.657 56.102 271.467 56.34 270.175 56.34ZM285.66 56.34C284.164 56.34 282.816 55.966 281.614 55.218C280.413 54.47 279.472 53.45 278.792 52.158C278.112 50.866 277.772 49.4153 277.772 47.806C277.772 46.174 278.112 44.712 278.792 43.42C279.472 42.128 280.413 41.108 281.614 40.36C282.816 39.612 284.164 39.238 285.66 39.238C286.839 39.238 287.893 39.476 288.822 39.952C289.752 40.428 290.488 41.0967 291.032 41.958C291.599 42.7967 291.905 43.7487 291.95 44.814V50.73C291.905 51.818 291.599 52.7813 291.032 53.62C290.488 54.4587 289.752 55.1273 288.822 55.626C287.893 56.102 286.839 56.34 285.66 56.34ZM286.476 52.226C287.723 52.226 288.732 51.818 289.502 51.002C290.273 50.1633 290.658 49.0867 290.658 47.772C290.658 46.9107 290.477 46.1513 290.114 45.494C289.774 44.814 289.287 44.2927 288.652 43.93C288.04 43.5447 287.315 43.352 286.476 43.352C285.66 43.352 284.935 43.5447 284.3 43.93C283.688 44.2927 283.201 44.814 282.838 45.494C282.498 46.1513 282.328 46.9107 282.328 47.772C282.328 48.656 282.498 49.438 282.838 50.118C283.201 50.7753 283.688 51.2967 284.3 51.682C284.935 52.0447 285.66 52.226 286.476 52.226ZM290.42 56V51.58L291.134 47.568L290.42 43.624V39.578H294.84V56H290.42ZM298.781 56V31.418H303.235V56H298.781Z" fill="#182527"/>
</svg>
