<svg width="66" height="66" viewBox="0 0 66 66" fill="none" xmlns="http://www.w3.org/2000/svg">
<rect width="66" height="66" rx="10" fill="#F6F8FF"/>
<path d="M39.9006 41.8111V36.3804H25.5518V41.8111L32.7262 48.0178L39.9006 41.8111Z" fill="#E6AF78" fill-opacity="0.56"/>
<path d="M50.9942 44.352L41.1299 42.0931C40.9809 42.059 40.8439 42.001 40.7157 41.9308L32.7262 46.4666L25.0483 41.7114C24.8496 41.8935 24.6028 42.0289 24.3226 42.0931L14.4584 44.3521C13.018 44.6819 12 45.9328 12 47.3729V53.4492C12 54.3063 12.7138 55.0009 13.5943 55.0009H51.858C52.7386 55.0009 53.4523 54.3062 53.4523 53.4492V47.3729C53.4525 45.9327 52.4345 44.6817 50.9942 44.352Z" fill="#0B4C4D"/>
<path d="M25.5518 36.3805V42.1104C34.5896 45.2795 39.9006 37.348 39.9006 37.348V36.3804H25.5518V36.3805Z" fill="#D29B6E" fill-opacity="0.34"/>
<path d="M22.3643 18.5366L23.0589 33.4104C23.1237 34.7999 23.8238 36.0885 24.9671 36.923L28.2632 39.329C29.0911 39.9332 30.0981 40.26 31.133 40.26H34.3217C35.3566 40.26 36.3635 39.9333 37.1915 39.329L40.4875 36.923C41.6308 36.0884 42.3309 34.8 42.3958 33.4104L43.0904 18.5366H22.3643Z" fill="#F7DECE"/>
<path d="M30.3359 21.64C33.5246 21.64 38.3075 20.8642 39.442 18.5366H22.3643L23.0589 33.4104C23.1237 34.7999 23.8238 36.0884 24.9672 36.923L28.2633 39.329C29.0912 39.9332 30.0981 40.26 31.1331 40.26H32.7274C31.1331 40.26 27.9444 37.1566 27.9444 33.2775C27.9444 31.3803 27.9444 26.295 27.9444 23.9675C27.9444 23.1916 28.7415 21.64 30.3359 21.64Z" fill="#F2D4B7"/>
<path d="M17.8551 49.9633L12.6895 45.4473C12.2567 45.9807 12.0029 46.6519 12.0029 47.3705V53.4468C12.0029 54.3039 12.7167 54.9985 13.5972 54.9985H19.1774V52.8492C19.1773 51.7482 18.6966 50.699 17.8551 49.9633Z" fill="#252F4A"/>
<path d="M47.6026 49.9633L52.7681 45.4473C53.2009 45.9807 53.4547 46.6519 53.4547 47.3705V53.4468C53.4547 54.3039 52.7409 54.9985 51.8604 54.9985H46.2803V52.8492C46.2803 51.7482 46.761 50.699 47.6026 49.9633Z" fill="#252F4A"/>
<path d="M25.4386 40.0849L32.7251 46.4672C32.7251 46.4672 30.6845 47.4698 28.1663 49.4905C27.6469 49.9073 26.8611 49.7385 26.5825 49.1419L23.1592 41.8123L24.2422 40.2314C24.5116 39.8376 25.0773 39.7685 25.4386 40.0849Z" fill="#252F5A"/>
<path d="M40.0115 40.0849L32.7251 46.4672C32.7251 46.4672 34.7657 47.4698 37.2838 49.4905C37.8033 49.9073 38.5891 49.7385 38.8677 49.1419L42.291 41.8123L41.208 40.2314C40.9384 39.8376 40.3727 39.7685 40.0115 40.0849Z" fill="#252F5A"/>
<path d="M37.5566 13.397L38.3039 18.5369C41.7153 19.201 42.207 24.4114 42.2778 25.8996C42.2906 26.1697 42.3792 26.4304 42.5297 26.6576L43.8313 28.6227C43.8313 28.6227 43.3858 25.3739 45.4256 23.1919C45.4256 23.1919 46.1262 10.2936 37.5566 13.397Z" fill="#404040"/>
<path d="M23.1277 12.0066L24.3068 12.7905C18.9758 16.6212 19.9722 23.1915 19.9722 23.1915C21.5665 24.7432 21.5665 28.6224 21.5665 28.6224L23.1608 27.0707C23.1608 27.0707 22.5455 22.5884 25.5522 20.8641C28.3423 19.2639 30.7836 20.0882 33.2748 20.0882C39.951 20.0882 41.8193 17.6395 41.4955 14.6574C41.3279 13.1144 38.9038 9.90016 32.7268 10.0024C30.2339 10.0436 25.5524 10.7782 23.1277 12.0066Z" fill="#242424"/>
</svg>
