<svg width="313" height="93" viewBox="0 0 313 93" fill="none" xmlns="http://www.w3.org/2000/svg">
<mask id="mask0_2057_903" style="mask-type:luminance" maskUnits="userSpaceOnUse" x="9" y="7" width="70" height="74">
<path d="M9.28491 7.01279H78.7151V80.3879H9.28491V7.01279Z" fill="white"/>
</mask>
<g mask="url(#mask0_2057_903)">
<mask id="mask1_2057_903" style="mask-type:luminance" maskUnits="userSpaceOnUse" x="9" y="7" width="70" height="74">
<path d="M56.1385 7.01279H31.8615C31.3757 7.01279 30.9815 7.42935 30.9815 7.94279V29.0121C30.9815 29.5256 30.5873 29.9421 30.1015 29.9421H10.1649C9.67908 29.9421 9.28491 30.3587 9.28491 30.8721V56.5285C9.28491 57.0419 9.67908 57.4585 10.1649 57.4585H30.1015C30.5873 57.4585 30.9815 57.8751 30.9815 58.3885V79.4579C30.9815 79.9713 31.3757 80.3879 31.8615 80.3879H56.1385C56.6243 80.3879 57.0185 79.9713 57.0185 79.4579V58.3885C57.0185 57.8751 57.4127 57.4585 57.8985 57.4585H77.8351C78.3209 57.4585 78.7151 57.0419 78.7151 56.5285V30.8721C78.7151 30.3587 78.3209 29.9421 77.8351 29.9421H57.8985C57.4127 29.9421 57.0185 29.5256 57.0185 29.0121V7.94279C57.0185 7.42935 56.6243 7.01279 56.1385 7.01279Z" fill="white"/>
</mask>
<g mask="url(#mask1_2057_903)">
<path d="M9.28491 7.01279H78.7151V80.3879H9.28491V7.01279Z" fill="#0B4C4D"/>
</g>
</g>
<mask id="mask2_2057_903" style="mask-type:luminance" maskUnits="userSpaceOnUse" x="61" y="11" width="13" height="14">
<path d="M61.5459 11.3131H73.8393V24.305H61.5459V11.3131Z" fill="white"/>
</mask>
<g mask="url(#mask2_2057_903)">
<mask id="mask3_2057_903" style="mask-type:luminance" maskUnits="userSpaceOnUse" x="61" y="11" width="13" height="14">
<path d="M69.6456 11.3131H65.7396C65.5453 11.3131 65.3876 11.4797 65.3876 11.6851V15.0011C65.3876 15.2065 65.23 15.3731 65.0356 15.3731H61.8979C61.7036 15.3731 61.5459 15.5397 61.5459 15.7451V19.8729C61.5459 20.0783 61.7036 20.2449 61.8979 20.2449H65.0356C65.23 20.2449 65.3876 20.4116 65.3876 20.6169V23.933C65.3876 24.1383 65.5453 24.305 65.7396 24.305H69.6456C69.8399 24.305 69.9976 24.1383 69.9976 23.933V20.6169C69.9976 20.4116 70.1552 20.2449 70.3496 20.2449H73.4873C73.6816 20.2449 73.8393 20.0783 73.8393 19.8729V15.7451C73.8393 15.5397 73.6816 15.3731 73.4873 15.3731H70.3496C70.1552 15.3731 69.9976 15.2065 69.9976 15.0011V11.6851C69.9976 11.4797 69.8399 11.3131 69.6456 11.3131Z" fill="white"/>
</mask>
<g mask="url(#mask3_2057_903)">
<path d="M61.5459 11.3131H73.8393V24.305H61.5459V11.3131Z" fill="#058789"/>
</g>
</g>
<mask id="mask4_2057_903" style="mask-type:luminance" maskUnits="userSpaceOnUse" x="18" y="28" width="29" height="42">
<path d="M18.7734 28.272H46.2294V69.688H18.7734V28.272Z" fill="white"/>
</mask>
<g mask="url(#mask4_2057_903)">
<mask id="mask5_2057_903" style="mask-type:luminance" maskUnits="userSpaceOnUse" x="17" y="24" width="33" height="49">
<path d="M31.2025 24.305L49.3818 31.342L35.2184 72.2106L17.0391 65.1746L31.2025 24.305Z" fill="white"/>
</mask>
<g mask="url(#mask5_2057_903)">
<mask id="mask6_2057_903" style="mask-type:luminance" maskUnits="userSpaceOnUse" x="17" y="24" width="33" height="49">
<path d="M31.2025 24.305L49.3818 31.342L35.2184 72.2106L17.0391 65.1746L31.2025 24.305Z" fill="white"/>
</mask>
<g mask="url(#mask6_2057_903)">
<path d="M18.8367 65.6629C20.7653 62.9969 22.078 59.9182 23.8435 57.1388C25.3578 54.4244 26.9565 51.7003 27.8888 48.6933C28.4516 46.0379 27.8805 43.2382 28.7477 40.6362C28.9457 39.1172 29.6029 37.5468 29.2225 36.021C28.3077 35.1482 28.1491 33.1894 29.8339 33.7997C31.3363 33.9431 31.5215 36.8251 32.0953 36.9278C33.0248 34.8275 33.9122 32.6324 35.5576 31.0271C36.51 30.1126 37.2653 28.1451 38.776 28.4193C40.3893 29.3464 38.5459 31.1657 37.9703 32.2265C37.434 33.2998 35.7162 34.843 36.1232 35.7634C37.7273 33.699 39.6973 31.9368 41.7158 30.317C43.2182 28.9608 44.5638 31.5212 42.9065 32.425C41.3023 34.1698 39.4983 35.7401 38.2673 37.82C37.5073 38.5727 38.0124 39.0949 38.6321 38.13C40.0309 36.4696 41.6892 35.093 43.1604 33.5091C44.2091 31.715 46.1634 34.0564 44.5785 35.1598C43.3621 36.6498 41.9623 37.9566 40.7432 39.4359C40.3307 40.0549 38.545 42.4797 40.3114 41.4896C41.9715 40.4986 43.4134 39.1801 44.8361 37.8549C46.619 36.7418 46.5713 39.5105 45.2853 40.1702C43.8635 41.8694 42.2593 43.3855 40.6533 44.8793C38.9456 47.3738 37.7924 50.346 35.5035 52.359C34.1652 53.1941 33.6463 54.7286 33.1651 56.2079C31.6242 60.6496 30.1667 65.1233 28.6725 69.5815C25.3963 68.2736 22.0533 67.1218 18.8367 65.6619V65.6629Z" fill="white"/>
</g>
</g>
</g>
<mask id="mask7_2057_903" style="mask-type:luminance" maskUnits="userSpaceOnUse" x="41" y="44" width="29" height="40">
<path d="M41.7708 44.392H69.2268V83.328H41.7708V44.392Z" fill="white"/>
</mask>
<g mask="url(#mask7_2057_903)">
<mask id="mask8_2057_903" style="mask-type:luminance" maskUnits="userSpaceOnUse" x="38" y="40" width="33" height="46">
<path d="M38.5442 47.7381L55.5823 40.175L70.7797 78.4174L53.7416 85.9795L38.5442 47.7381Z" fill="white"/>
</mask>
<g mask="url(#mask8_2057_903)">
<mask id="mask9_2057_903" style="mask-type:luminance" maskUnits="userSpaceOnUse" x="38" y="40" width="33" height="46">
<path d="M55.5869 40.1731L38.5488 47.7352L53.7472 85.9775L70.7852 78.4145L55.5869 40.1731Z" fill="white"/>
</mask>
<g mask="url(#mask9_2057_903)">
<path d="M69.0967 78.9725C67.1487 76.5235 65.7691 73.6541 63.9725 71.0907C62.416 68.5778 60.7788 66.0581 59.7659 63.239C59.1187 60.7367 59.545 58.0446 58.61 55.6072C58.3579 54.1706 57.6658 52.7058 57.9637 51.2352C58.7979 50.3614 58.8676 48.4888 57.2891 49.1486C55.8646 49.3559 55.8087 52.1081 55.2669 52.2331C54.2934 50.2772 53.3566 48.2282 51.7231 46.7771C50.7771 45.9507 49.9759 44.113 48.5486 44.4453C47.0508 45.4034 48.8832 47.0493 49.4754 48.0316C50.0309 49.0294 51.7313 50.4176 51.383 51.3137C49.7687 49.4227 47.819 47.8369 45.8289 46.3896C44.3421 45.1689 43.1678 47.6693 44.7839 48.453C46.3844 50.0388 48.1673 51.4493 49.4277 53.3723C50.1831 54.0533 49.7238 54.5736 49.0931 53.6842C47.6916 52.1691 46.0544 50.9359 44.5868 49.4973C43.5134 47.8378 41.7516 50.159 43.3071 51.1355C44.5272 52.4966 45.9151 53.6755 47.1379 55.0269C47.5568 55.5966 49.359 57.8218 47.6347 56.9615C46.0122 56.0964 44.5841 54.9087 43.1742 53.7133C41.4298 52.7368 41.5911 55.3708 42.8442 55.9385C44.2687 57.4895 45.8601 58.8583 47.4523 60.2049C49.1821 62.4999 50.4049 65.2763 52.6691 67.0859C53.9781 67.8183 54.5372 69.255 55.057 70.6413C56.7116 74.7982 58.2864 78.989 59.8961 83.1643C62.9605 81.7654 66.0955 80.5128 69.0967 78.9715V78.9725Z" fill="white"/>
</g>
</g>
</g>
<path d="M104.384 57.34C102.457 57.34 100.803 57.0113 99.42 56.354C98.06 55.6967 96.8247 54.7107 95.714 53.396L98.774 50.336C99.4767 51.2653 100.293 51.9907 101.222 52.512C102.151 53.0107 103.285 53.26 104.622 53.26C105.823 53.26 106.775 53.022 107.478 52.546C108.203 52.07 108.566 51.4127 108.566 50.574C108.566 49.8487 108.362 49.2593 107.954 48.806C107.546 48.3527 107.002 47.9673 106.322 47.65C105.665 47.3327 104.928 47.0493 104.112 46.8C103.319 46.528 102.514 46.222 101.698 45.882C100.905 45.542 100.168 45.1227 99.488 44.624C98.8307 44.1027 98.298 43.4453 97.89 42.652C97.482 41.836 97.278 40.816 97.278 39.592C97.278 38.1413 97.6293 36.906 98.332 35.886C99.0347 34.866 99.998 34.084 101.222 33.54C102.446 32.996 103.829 32.724 105.37 32.724C107.002 32.724 108.475 33.03 109.79 33.642C111.105 34.254 112.181 35.0473 113.02 36.022L109.96 39.082C109.257 38.3113 108.532 37.7447 107.784 37.382C107.059 37.0193 106.231 36.838 105.302 36.838C104.237 36.838 103.398 37.042 102.786 37.45C102.174 37.858 101.868 38.4473 101.868 39.218C101.868 39.8753 102.072 40.408 102.48 40.816C102.888 41.224 103.421 41.5753 104.078 41.87C104.758 42.1647 105.495 42.448 106.288 42.72C107.104 42.992 107.909 43.298 108.702 43.638C109.518 43.978 110.255 44.42 110.912 44.964C111.592 45.508 112.136 46.2107 112.544 47.072C112.952 47.9107 113.156 48.9533 113.156 50.2C113.156 52.4213 112.374 54.1667 110.81 55.436C109.246 56.7053 107.104 57.34 104.384 57.34ZM123.333 57.34C121.883 57.34 120.591 57.034 119.457 56.422C118.347 55.81 117.474 54.96 116.839 53.872C116.205 52.784 115.887 51.526 115.887 50.098V40.578H120.375V49.996C120.375 50.676 120.489 51.2653 120.715 51.764C120.942 52.24 121.282 52.6027 121.735 52.852C122.189 53.1013 122.721 53.226 123.333 53.226C124.263 53.226 124.988 52.9427 125.509 52.376C126.031 51.8093 126.291 51.016 126.291 49.996V40.578H130.745V50.098C130.745 51.5487 130.428 52.818 129.793 53.906C129.181 54.994 128.309 55.844 127.175 56.456C126.065 57.0453 124.784 57.34 123.333 57.34ZM145.342 57V47.582C145.342 46.6073 145.036 45.814 144.424 45.202C143.812 44.59 143.019 44.284 142.044 44.284C141.41 44.284 140.843 44.42 140.344 44.692C139.846 44.964 139.449 45.3493 139.154 45.848C138.882 46.3467 138.746 46.9247 138.746 47.582L137.012 46.698C137.012 45.406 137.284 44.284 137.828 43.332C138.395 42.3573 139.166 41.598 140.14 41.054C141.138 40.51 142.26 40.238 143.506 40.238C144.708 40.238 145.784 40.544 146.736 41.156C147.688 41.7453 148.436 42.5273 148.98 43.502C149.524 44.454 149.796 45.4853 149.796 46.596V57H145.342ZM134.292 57V40.578H138.746V57H134.292ZM152.058 64.276C150.879 64.276 149.905 64.0833 149.134 63.698C148.341 63.3127 147.627 62.7687 146.992 62.066L149.814 59.244C150.086 59.584 150.381 59.822 150.698 59.958C150.993 60.1167 151.344 60.196 151.752 60.196C152.319 60.196 152.795 60.026 153.18 59.686C153.565 59.346 153.758 58.8473 153.758 58.19V40.578H158.212V58.122C158.212 59.414 157.929 60.5133 157.362 61.42C156.818 62.3493 156.081 63.052 155.152 63.528C154.245 64.0267 153.214 64.276 152.058 64.276ZM156.036 37.926C155.311 37.926 154.71 37.688 154.234 37.212C153.758 36.7133 153.52 36.1013 153.52 35.376C153.52 34.6733 153.758 34.0727 154.234 33.574C154.71 33.0753 155.311 32.826 156.036 32.826C156.784 32.826 157.385 33.0753 157.838 33.574C158.314 34.0727 158.552 34.6733 158.552 35.376C158.552 36.1013 158.314 36.7133 157.838 37.212C157.385 37.688 156.784 37.926 156.036 37.926ZM169.121 57.34C167.67 57.34 166.378 57.034 165.245 56.422C164.134 55.81 163.261 54.96 162.627 53.872C161.992 52.784 161.675 51.526 161.675 50.098V40.578H166.163V49.996C166.163 50.676 166.276 51.2653 166.503 51.764C166.729 52.24 167.069 52.6027 167.523 52.852C167.976 53.1013 168.509 53.226 169.121 53.226C170.05 53.226 170.775 52.9427 171.297 52.376C171.818 51.8093 172.079 51.016 172.079 49.996V40.578H176.533V50.098C176.533 51.5487 176.215 52.818 175.581 53.906C174.969 54.994 174.096 55.844 172.963 56.456C171.852 57.0453 170.571 57.34 169.121 57.34ZM187.196 57V33.098H190.46L200.15 48.602H198.28L207.936 33.098H211.2V57H206.61V41.02L207.494 41.292L200.762 52.104H197.634L190.902 41.292L191.82 41.02V57H187.196ZM223.461 57.34C221.738 57.34 220.208 56.9773 218.871 56.252C217.533 55.504 216.468 54.484 215.675 53.192C214.904 51.9 214.519 50.4267 214.519 48.772C214.519 47.14 214.893 45.6893 215.641 44.42C216.411 43.128 217.454 42.108 218.769 41.36C220.083 40.5893 221.545 40.204 223.155 40.204C224.741 40.204 226.135 40.5667 227.337 41.292C228.561 41.9947 229.513 42.9693 230.193 44.216C230.895 45.44 231.247 46.834 231.247 48.398C231.247 48.6927 231.224 48.9987 231.179 49.316C231.156 49.6107 231.099 49.9507 231.009 50.336L217.205 50.37V47.038L228.935 47.004L227.133 48.398C227.087 47.4233 226.906 46.6073 226.589 45.95C226.294 45.2927 225.852 44.794 225.263 44.454C224.696 44.0913 223.993 43.91 223.155 43.91C222.271 43.91 221.5 44.114 220.843 44.522C220.185 44.9073 219.675 45.4627 219.313 46.188C218.973 46.8907 218.803 47.7293 218.803 48.704C218.803 49.7013 218.984 50.574 219.347 51.322C219.732 52.0473 220.276 52.614 220.979 53.022C221.681 53.4073 222.497 53.6 223.427 53.6C224.265 53.6 225.025 53.464 225.705 53.192C226.385 52.8973 226.974 52.4667 227.473 51.9L230.091 54.518C229.297 55.4473 228.323 56.15 227.167 56.626C226.033 57.102 224.798 57.34 223.461 57.34ZM240.937 57.34C239.419 57.34 238.059 56.966 236.857 56.218C235.656 55.47 234.704 54.45 234.001 53.158C233.321 51.866 232.981 50.4153 232.981 48.806C232.981 47.174 233.321 45.712 234.001 44.42C234.704 43.128 235.645 42.108 236.823 41.36C238.025 40.612 239.396 40.238 240.937 40.238C242.116 40.238 243.17 40.476 244.099 40.952C245.051 41.428 245.811 42.0967 246.377 42.958C246.967 43.7967 247.284 44.7487 247.329 45.814V51.662C247.284 52.7273 246.978 53.6907 246.411 54.552C245.845 55.4133 245.085 56.0933 244.133 56.592C243.181 57.0907 242.116 57.34 240.937 57.34ZM241.685 53.226C242.524 53.226 243.249 53.0447 243.861 52.682C244.496 52.2967 244.983 51.7753 245.323 51.118C245.686 50.438 245.867 49.656 245.867 48.772C245.867 47.9107 245.686 47.1513 245.323 46.494C244.983 45.814 244.496 45.2927 243.861 44.93C243.249 44.5447 242.535 44.352 241.719 44.352C240.881 44.352 240.144 44.5447 239.509 44.93C238.897 45.3153 238.41 45.8367 238.047 46.494C237.707 47.1513 237.537 47.9107 237.537 48.772C237.537 49.656 237.707 50.438 238.047 51.118C238.41 51.7753 238.909 52.2967 239.543 52.682C240.178 53.0447 240.892 53.226 241.685 53.226ZM250.049 57H245.629V52.58L246.343 48.568L245.595 44.624V32.418H250.049V57ZM253.99 57V40.578H258.478V57H253.99ZM256.234 37.926C255.508 37.926 254.908 37.688 254.432 37.212C253.956 36.7133 253.718 36.1013 253.718 35.376C253.718 34.6733 253.956 34.0727 254.432 33.574C254.908 33.0753 255.508 32.826 256.234 32.826C256.982 32.826 257.582 33.0753 258.036 33.574C258.512 34.0727 258.75 34.6733 258.75 35.376C258.75 36.1013 258.512 36.7133 258.036 37.212C257.582 37.688 256.982 37.926 256.234 37.926ZM270.175 57.34C268.498 57.34 266.991 56.966 265.653 56.218C264.316 55.47 263.262 54.45 262.491 53.158C261.721 51.866 261.335 50.4153 261.335 48.806C261.335 47.174 261.721 45.712 262.491 44.42C263.262 43.128 264.316 42.108 265.653 41.36C267.013 40.5893 268.521 40.204 270.175 40.204C271.467 40.204 272.657 40.442 273.745 40.918C274.833 41.394 275.774 42.074 276.567 42.958L273.711 45.848C273.281 45.372 272.759 45.0093 272.147 44.76C271.558 44.5107 270.901 44.386 270.175 44.386C269.359 44.386 268.623 44.5787 267.965 44.964C267.331 45.3267 266.821 45.8367 266.435 46.494C266.073 47.1287 265.891 47.888 265.891 48.772C265.891 49.6333 266.073 50.404 266.435 51.084C266.821 51.7413 267.331 52.2627 267.965 52.648C268.623 53.0107 269.359 53.192 270.175 53.192C270.923 53.192 271.592 53.0673 272.181 52.818C272.793 52.546 273.315 52.1607 273.745 51.662L276.635 54.552C275.797 55.4587 274.833 56.15 273.745 56.626C272.657 57.102 271.467 57.34 270.175 57.34ZM285.66 57.34C284.164 57.34 282.816 56.966 281.614 56.218C280.413 55.47 279.472 54.45 278.792 53.158C278.112 51.866 277.772 50.4153 277.772 48.806C277.772 47.174 278.112 45.712 278.792 44.42C279.472 43.128 280.413 42.108 281.614 41.36C282.816 40.612 284.164 40.238 285.66 40.238C286.839 40.238 287.893 40.476 288.822 40.952C289.752 41.428 290.488 42.0967 291.032 42.958C291.599 43.7967 291.905 44.7487 291.95 45.814V51.73C291.905 52.818 291.599 53.7813 291.032 54.62C290.488 55.4587 289.752 56.1273 288.822 56.626C287.893 57.102 286.839 57.34 285.66 57.34ZM286.476 53.226C287.723 53.226 288.732 52.818 289.502 52.002C290.273 51.1633 290.658 50.0867 290.658 48.772C290.658 47.9107 290.477 47.1513 290.114 46.494C289.774 45.814 289.287 45.2927 288.652 44.93C288.04 44.5447 287.315 44.352 286.476 44.352C285.66 44.352 284.935 44.5447 284.3 44.93C283.688 45.2927 283.201 45.814 282.838 46.494C282.498 47.1513 282.328 47.9107 282.328 48.772C282.328 49.656 282.498 50.438 282.838 51.118C283.201 51.7753 283.688 52.2967 284.3 52.682C284.935 53.0447 285.66 53.226 286.476 53.226ZM290.42 57V52.58L291.134 48.568L290.42 44.624V40.578H294.84V57H290.42ZM298.781 57V32.418H303.235V57H298.781Z" fill="#0B4C4D"/>
</svg>
