<svg width="88" height="92" viewBox="0 0 88 92" fill="none" xmlns="http://www.w3.org/2000/svg">
<mask id="mask0_2057_2006" style="mask-type:luminance" maskUnits="userSpaceOnUse" x="9" y="6" width="70" height="74">
<path d="M9.28491 6.0127H78.7151V79.3878H9.28491V6.0127Z" fill="white"/>
</mask>
<g mask="url(#mask0_2057_2006)">
<mask id="mask1_2057_2006" style="mask-type:luminance" maskUnits="userSpaceOnUse" x="9" y="6" width="70" height="74">
<path d="M56.1385 6.0127H31.8615C31.3757 6.0127 30.9815 6.42926 30.9815 6.9427V28.012C30.9815 28.5255 30.5873 28.942 30.1015 28.942H10.1649C9.67908 28.942 9.28491 29.3586 9.28491 29.872V55.5284C9.28491 56.0419 9.67908 56.4584 10.1649 56.4584H30.1015C30.5873 56.4584 30.9815 56.875 30.9815 57.3884V78.4578C30.9815 78.9712 31.3757 79.3878 31.8615 79.3878H56.1385C56.6243 79.3878 57.0185 78.9712 57.0185 78.4578V57.3884C57.0185 56.875 57.4127 56.4584 57.8985 56.4584H77.8351C78.3209 56.4584 78.7151 56.0419 78.7151 55.5284V29.872C78.7151 29.3586 78.3209 28.942 77.8351 28.942H57.8985C57.4127 28.942 57.0185 28.5255 57.0185 28.012V6.9427C57.0185 6.42926 56.6243 6.0127 56.1385 6.0127Z" fill="white"/>
</mask>
<g mask="url(#mask1_2057_2006)">
<path d="M9.28491 6.0127H78.7151V79.3878H9.28491V6.0127Z" fill="#0B4C4D"/>
</g>
</g>
<mask id="mask2_2057_2006" style="mask-type:luminance" maskUnits="userSpaceOnUse" x="61" y="10" width="13" height="14">
<path d="M61.5459 10.313H73.8393V23.3049H61.5459V10.313Z" fill="white"/>
</mask>
<g mask="url(#mask2_2057_2006)">
<mask id="mask3_2057_2006" style="mask-type:luminance" maskUnits="userSpaceOnUse" x="61" y="10" width="13" height="14">
<path d="M69.6456 10.313H65.7396C65.5453 10.313 65.3876 10.4796 65.3876 10.685V14.001C65.3876 14.2064 65.23 14.373 65.0356 14.373H61.8979C61.7036 14.373 61.5459 14.5396 61.5459 14.745V18.8729C61.5459 19.0782 61.7036 19.2449 61.8979 19.2449H65.0356C65.23 19.2449 65.3876 19.4115 65.3876 19.6169V22.9329C65.3876 23.1383 65.5453 23.3049 65.7396 23.3049H69.6456C69.8399 23.3049 69.9976 23.1383 69.9976 22.9329V19.6169C69.9976 19.4115 70.1552 19.2449 70.3496 19.2449H73.4873C73.6816 19.2449 73.8393 19.0782 73.8393 18.8729V14.745C73.8393 14.5396 73.6816 14.373 73.4873 14.373H70.3496C70.1552 14.373 69.9976 14.2064 69.9976 14.001V10.685C69.9976 10.4796 69.8399 10.313 69.6456 10.313Z" fill="white"/>
</mask>
<g mask="url(#mask3_2057_2006)">
<path d="M61.5459 10.313H73.8393V23.3049H61.5459V10.313Z" fill="#058789"/>
</g>
</g>
<mask id="mask4_2057_2006" style="mask-type:luminance" maskUnits="userSpaceOnUse" x="18" y="27" width="29" height="42">
<path d="M18.7734 27.272H46.2294V68.688H18.7734V27.272Z" fill="white"/>
</mask>
<g mask="url(#mask4_2057_2006)">
<mask id="mask5_2057_2006" style="mask-type:luminance" maskUnits="userSpaceOnUse" x="17" y="23" width="33" height="49">
<path d="M31.2025 23.3052L49.3818 30.3422L35.2184 71.2108L17.0391 64.1748L31.2025 23.3052Z" fill="white"/>
</mask>
<g mask="url(#mask5_2057_2006)">
<mask id="mask6_2057_2006" style="mask-type:luminance" maskUnits="userSpaceOnUse" x="17" y="23" width="33" height="49">
<path d="M31.2025 23.3052L49.3818 30.3422L35.2184 71.2108L17.0391 64.1748L31.2025 23.3052Z" fill="white"/>
</mask>
<g mask="url(#mask6_2057_2006)">
<path d="M18.8367 64.6631C20.7653 61.9971 22.078 58.9184 23.8435 56.1391C25.3578 53.4246 26.9565 50.7005 27.8888 47.6935C28.4516 45.0382 27.8805 42.2385 28.7477 39.6364C28.9457 38.1174 29.6029 36.5471 29.2225 35.0213C28.3077 34.1484 28.1491 32.1896 29.8339 32.7999C31.3363 32.9433 31.5215 35.8254 32.0953 35.928C33.0248 33.8278 33.9122 31.6326 35.5576 30.0274C36.51 29.1129 37.2653 27.1454 38.776 27.4195C40.3893 28.3466 38.5459 30.1659 37.9703 31.2267C37.434 32.3001 35.7162 33.8433 36.1232 34.7636C37.7273 32.6992 39.6973 30.937 41.7158 29.3173C43.2182 27.961 44.5638 30.5214 42.9065 31.4253C41.3023 33.17 39.4983 34.7404 38.2673 36.8203C37.5073 37.573 38.0124 38.0951 38.6321 37.1303C40.0309 35.4698 41.6892 34.0932 43.1604 32.5093C44.2091 30.7152 46.1634 33.0567 44.5785 34.1601C43.3621 35.65 41.9623 36.9569 40.7432 38.4361C40.3307 39.0552 38.545 41.4799 40.3114 40.4899C41.9715 39.4989 43.4134 38.1804 44.8361 36.8551C46.619 35.742 46.5713 38.5107 45.2853 39.1704C43.8635 40.8696 42.2593 42.3857 40.6533 43.8795C38.9456 46.3741 37.7924 49.3462 35.5035 51.3593C34.1652 52.1943 33.6463 53.7288 33.1651 55.2081C31.6242 59.6498 30.1667 64.1235 28.6725 68.5817C25.3963 67.2739 22.0533 66.122 18.8367 64.6621V64.6631Z" fill="white"/>
</g>
</g>
</g>
<mask id="mask7_2057_2006" style="mask-type:luminance" maskUnits="userSpaceOnUse" x="41" y="43" width="29" height="40">
<path d="M41.7708 43.3921H69.2268V82.3281H41.7708V43.3921Z" fill="white"/>
</mask>
<g mask="url(#mask7_2057_2006)">
<mask id="mask8_2057_2006" style="mask-type:luminance" maskUnits="userSpaceOnUse" x="38" y="39" width="33" height="46">
<path d="M38.5442 46.7383L55.5823 39.1753L70.7797 77.4177L53.7416 84.9797L38.5442 46.7383Z" fill="white"/>
</mask>
<g mask="url(#mask8_2057_2006)">
<mask id="mask9_2057_2006" style="mask-type:luminance" maskUnits="userSpaceOnUse" x="38" y="39" width="33" height="46">
<path d="M55.5869 39.1733L38.5488 46.7354L53.7472 84.9778L70.7852 77.4147L55.5869 39.1733Z" fill="white"/>
</mask>
<g mask="url(#mask9_2057_2006)">
<path d="M69.0967 77.9727C67.1487 75.5237 65.7691 72.6543 63.9725 70.091C62.416 67.578 60.7788 65.0583 59.7659 62.2392C59.1187 59.737 59.545 57.0448 58.61 54.6074C58.3579 53.1708 57.6658 51.706 57.9637 50.2355C58.7979 49.3616 58.8676 47.489 57.2891 48.1488C55.8646 48.3561 55.8087 51.1083 55.2669 51.2333C54.2934 49.2774 53.3566 47.2285 51.7231 45.7773C50.7771 44.9509 49.9759 43.1132 48.5486 43.4455C47.0508 44.4036 48.8832 46.0495 49.4754 47.0318C50.0309 48.0296 51.7313 49.4178 51.383 50.3139C49.7687 48.4229 47.819 46.8371 45.8289 45.3898C44.3421 44.1691 43.1678 46.6695 44.7839 47.4532C46.3844 49.039 48.1673 50.4495 49.4277 52.3725C50.1831 53.0535 49.7238 53.5738 49.0931 52.6845C47.6916 51.1693 46.0544 49.9361 44.5868 48.4975C43.5134 46.838 41.7516 49.1592 43.3071 50.1357C44.5272 51.4968 45.9151 52.6757 47.1379 54.0271C47.5568 54.5968 49.359 56.822 47.6347 55.9617C46.0122 55.0966 44.5841 53.909 43.1742 52.7135C41.4298 51.737 41.5911 54.371 42.8442 54.9387C44.2687 56.4897 45.8601 57.8585 47.4523 59.2051C49.1821 61.5001 50.4049 64.2765 52.6691 66.0861C53.9781 66.8185 54.5372 68.2552 55.057 69.6415C56.7116 73.7984 58.2864 77.9892 59.8961 82.1645C62.9605 80.7656 66.0955 79.513 69.0967 77.9717V77.9727Z" fill="white"/>
</g>
</g>
</g>
</svg>
